<?xml version="1.0" encoding="utf-8"?>
<!-- Generator: Adobe Illustrator 15.0.2, SVG Export Plug-In . SVG Version: 6.00 Build 0)  -->
<!DOCTYPE svg PUBLIC "-//W3C//DTD SVG 1.1//EN" "http://www.w3.org/Graphics/SVG/1.1/DTD/svg11.dtd">
<svg version="1.1" id="Layer_1" xmlns="http://www.w3.org/2000/svg" xmlns:xlink="http://www.w3.org/1999/xlink" x="0px" y="0px"
	 width="31px" height="27px" viewBox="0 0 31 27" enable-background="new 0 0 31 27" xml:space="preserve">
<path fill="#FFFFFF" d="M0,27h31c0,0-0.117-3.6-0.271-3.997c-0.168-0.402-0.092-0.987-0.809-1.436
	c-0.717-0.438-0.766-0.404-2.463-1.178c-0.959-0.432-1.957-0.773-2.949-1.127c-0.91-0.32-1.828-0.636-2.73-0.975
	c-0.607-0.228-1.033-0.659-1.473-1.104c-0.16-0.16-0.336-0.33-0.443-0.525c-0.146-0.257-0.076-0.49-0.492-0.427
	c-0.416,0.047-0.297-0.735-0.297-0.735s0.504-0.292,0.664-0.767c0.141-0.448,0.393-2.208,0.393-2.208s0.277,0.05,0.504-0.111
	c0.258-0.15,0.602-0.601,0.877-3.414c0.047-0.583-0.318-0.311-0.318-0.334c-0.164-0.764,0.41-1.274,0.201-4.022
	c-0.039-0.522-0.139-1.041-0.449-1.483c-0.279-0.403-0.521-0.842-0.826-1.232c-0.205-0.269-0.484-0.535-0.789-0.711
	c-1.412-0.822-3.066-1.252-4.728-1.213c-0.355,0.011-0.672,0.089-1.008,0.191c-0.769,0.248-0.695,0.248-1.062,0.451
	c-0.229,0.125-0.405,0.24-0.568,0.439c-0.137,0.174-0.25,0.34-0.503,0.35c-1.156,0.041-1.343,1.099-1.692,1.935
	C9.491,3.954,9.444,4.39,9.491,4.727c0.047,0.365,0.11,0.562,0.201,1.298C9.758,6.57,9.754,7.117,9.817,7.66
	C9.84,7.845,9.934,8.025,9.972,8.208c0.063,0.353-0.163,0.15-0.279,0.393c-0.091,0.235,0,1.484,0.163,2.02
	c0.165,0.565,0.183,1.34,0.439,1.591c0.253,0.272,0.302,0.11,0.576,0.2c0.253,0.111,0-0.039,0.207,0.5
	c0.184,0.523,0.11,0.998,0.303,1.623c0.247,0.908,0.687,0.561,0.806,1.049c0.088,0.498-0.095,0.498-0.095,0.498
	s-0.437-0.049-0.665,0.089c-0.296,0.172-0.479,0.709-0.629,0.983c-0.168,0.307-0.312,0.727-0.663,0.899
	c-0.851,0.411-1.826,0.656-2.723,0.975c-0.824,0.292-1.648,0.581-2.466,0.889c-0.262,0.095-0.532,0.191-0.781,0.314
	c-0.712,0.361-1.956,0.697-2.576,1.098c-0.601,0.399-1.316,1.174-1.316,1.676C0.274,23.512,0,27,0,27"/>
</svg>
