<?xml version="1.0" encoding="utf-8"?>
<!-- Generator: Adobe Illustrator 15.0.2, SVG Export Plug-In . SVG Version: 6.00 Build 0)  -->
<!DOCTYPE svg PUBLIC "-//W3C//DTD SVG 1.1//EN" "http://www.w3.org/Graphics/SVG/1.1/DTD/svg11.dtd">
<svg version="1.1" id="Layer_1" xmlns="http://www.w3.org/2000/svg" xmlns:xlink="http://www.w3.org/1999/xlink" x="0px" y="0px"
	 width="27px" height="19.371px" viewBox="0 0 27 19.371" enable-background="new 0 0 27 19.371" xml:space="preserve">
<g>
	<g>
		<path fill="#FFFFFF" d="M21.945,14.71H7.368c-0.319,0-0.611-0.18-0.755-0.465L0.089,1.224C-0.12,0.807,0.051,0.299,0.467,0.09
			C0.888-0.12,1.391,0.051,1.601,0.467l6.288,12.556h14.057c0.468,0,0.847,0.378,0.847,0.844
			C22.792,14.333,22.413,14.71,21.945,14.71z"/>
	</g>
	<g>
		<path fill="#FFFFFF" d="M23.388,11.089H9.937c-0.466,0-0.845-0.378-0.845-0.844S9.47,9.4,9.937,9.4h13.451
			c0.465,0,0.844,0.378,0.844,0.844S23.853,11.089,23.388,11.089z"/>
	</g>
	<g>
		<path fill="#FFFFFF" d="M24.898,7.824H8.437c-0.466,0-0.844-0.379-0.844-0.845s0.378-0.844,0.844-0.844h16.461
			c0.465,0,0.846,0.378,0.846,0.844S25.363,7.824,24.898,7.824z"/>
	</g>
	<g>
		<path fill="#FFFFFF" d="M26.153,4.551H7.047c-0.466,0-0.845-0.378-0.845-0.845c0-0.465,0.379-0.843,0.845-0.843h19.106
			C26.622,2.862,27,3.24,27,3.706C27,4.173,26.622,4.551,26.153,4.551z"/>
	</g>
	<g>
		<path fill="#FFFFFF" d="M11.463,17.612c0-0.973-0.788-1.761-1.761-1.761c-0.971,0-1.76,0.788-1.76,1.761
			c0,0.97,0.789,1.759,1.76,1.759C10.675,19.371,11.463,18.582,11.463,17.612"/>
	</g>
	<g>
		<path fill="#FFFFFF" d="M21.116,17.612c0-0.973-0.788-1.761-1.759-1.761s-1.76,0.788-1.76,1.761c0,0.97,0.789,1.759,1.76,1.759
			S21.116,18.582,21.116,17.612"/>
	</g>
</g>
</svg>
