<?xml version="1.0" encoding="utf-8"?>
<!-- Generator: Adobe Illustrator 15.0.2, SVG Export Plug-In . SVG Version: 6.00 Build 0)  -->
<!DOCTYPE svg PUBLIC "-//W3C//DTD SVG 1.1//EN" "http://www.w3.org/Graphics/SVG/1.1/DTD/svg11.dtd">
<svg version="1.1" id="Layer_1" xmlns="http://www.w3.org/2000/svg" xmlns:xlink="http://www.w3.org/1999/xlink" x="0px" y="0px"
	 width="25px" height="21px" viewBox="0 0 25 21" enable-background="new 0 0 25 21" xml:space="preserve">
<g>
	<path fill="#FFFFFF" d="M24.36,1.272H0.64C0.287,1.272,0,0.988,0,0.636C0,0.285,0.287,0,0.64,0H24.36
		c0.354,0,0.639,0.285,0.639,0.636C24.999,0.988,24.714,1.272,24.36,1.272z"/>
</g>
<g>
	<path fill="#FFFFFF" d="M24.36,14.33H0.64C0.287,14.33,0,14.047,0,13.693c0-0.352,0.287-0.635,0.64-0.635H24.36
		c0.354,0,0.639,0.283,0.639,0.635C24.999,14.047,24.714,14.33,24.36,14.33z"/>
</g>
<g>
	<path fill="#FFFFFF" d="M24.36,7.942H0.64C0.287,7.942,0,7.658,0,7.306S0.287,6.67,0.64,6.67H24.36
		c0.354,0,0.639,0.284,0.639,0.636S24.714,7.942,24.36,7.942z"/>
</g>
<g>
	<path fill="#FFFFFF" d="M24.36,21H0.64C0.287,21,0,20.715,0,20.363s0.287-0.637,0.64-0.637H24.36c0.354,0,0.639,0.285,0.639,0.637
		S24.714,21,24.36,21z"/>
</g>
</svg>
