<?xml version="1.0" encoding="utf-8"?>
<!-- Generator: Adobe Illustrator 15.0.2, SVG Export Plug-In . SVG Version: 6.00 Build 0)  -->
<!DOCTYPE svg PUBLIC "-//W3C//DTD SVG 1.1//EN" "http://www.w3.org/Graphics/SVG/1.1/DTD/svg11.dtd">
<svg version="1.1" id="Layer_1" xmlns="http://www.w3.org/2000/svg" xmlns:xlink="http://www.w3.org/1999/xlink" x="0px" y="0px"
	 width="97.23px" height="33px" viewBox="0 0 97.23 33" enable-background="new 0 0 97.23 33" xml:space="preserve">
<g>
	<path d="M8.778,18.136c0-1.481,1.842-1.879,2.999-1.988c1.481-0.145,7.622,0.144,7.622,1.625c0,5.203-5.274,10.044-10.439,10.044
		C3.866,27.817,0,22.397,0,18.136C0,12.5,5.311,8.056,10.26,8.056c1.987,0,5.058,0.397,6.214,3.541c0,1.011-0.542,1.156-0.903,1.228
		s-1.156-1.048-2.24-1.625c-1.011-0.542-2.926-0.506-3.468-0.506c-3.323,0-6.936,4.118-6.936,7.262c0,2.456,1.915,7.297,5.671,7.297
		c1.481,0,5.708-0.543,7.55-5.347c-0.578-0.614-0.867-0.867-1.878-0.867c-0.903,0-2.204,0.396-3.106,0.396
		c-0.434,0-0.723,0.108-0.759,0.362C9.862,19.761,8.778,18.604,8.778,18.136z"/>
	<path d="M30.522,12.318c-1.842-1.011-4.191-0.108-6.286-0.108c-0.397,0.759-0.433,2.999-0.578,3.938
		c0.361,0,5.527-0.072,5.78,0.975c0,1.05-0.145,1.446-1.264,1.446c-1.518,0-2.926-0.325-4.697-0.217c0,0.901,0.181,3.07,0.181,4.335
		c0.325,0.326,0.795,0.36,8.128,0.289c0.939,0,1.553,0.65,1.697,1.301c0.108,0.614-0.181,1.228-1.12,1.228
		c-0.723,0-6.611,0-10.115,0.289c-0.217-0.217-0.578-0.325-0.759-0.577c-0.397-2.06-0.65-6.468-0.65-7.335
		c0-0.651,0.253-5.274,0.65-7.369c0.072-0.072,0.29-0.289,0.47-0.434c2.926-0.108,8.958-0.686,9.681-0.686
		c1.084,0,1.445,0.47,1.518,1.409c0.108,1.084-0.614,1.986-1.807,1.986C30.919,12.788,30.848,12.5,30.522,12.318z"/>
	<path d="M45.043,5.528c-0.831-0.615-2.24-0.867-3.288-0.687c-0.325,0.072-0.65,0.252-1.083,0.687V21.17
		c0,0.396,0.686,8.236,1.517,10.224c0,2.132-1.011,1.698-2.384,1.191c-0.542-0.831-1.228-2.059-1.771-3.215
		c-0.397-0.902,0.614-1.48,0.759-2.274c0.181-0.939,0.108-2.312-0.217-3.325L38.288,6.539c0.108-0.47-0.397-1.192-0.615-1.59
		c-2.89-0.578-5.237,0.65-7.983,0.072c-0.722-0.145-0.975-2.782,0.903-2.782c1.662,0,5.238,0.687,7.08-0.252
		C37.999,1.301,37.999,0.614,38.288,0h1.48c0.542,0.614,0.868,1.517,1.193,2.312c1.301,0.253,3.251,0,4.624,0.037
		c1.698,0.036,2.818,0.397,2.818,1.553c0,1.336-1.663,2.276-2.277,2.276C45.729,6.178,45.332,5.744,45.043,5.528z"/>
	<path d="M60.858,24.204c0-1.481,1.373-3.611,2.818-3.611c1.409,0,1.77,1.191,1.77,2.312c-1.481,1.047-1.517,1.372-1.517,1.66
		c0,1.517,1.084,2.239,1.698,2.239c1.373,0,2.998-1.661,2.998-2.853c0-2.565-3.035-3.938-4.985-4.949
		c-2.528-1.372-5.347-2.891-5.347-6.034c0-3.36,3.433-5.78,6.431-5.78c4.226,0,8.814,4.551,5.888,7.694
		c-0.758,0-1.337-0.325-2.059-0.325c0.687-2.818-1.445-4.588-3.324-4.588c-1.842,0-3.647,1.843-3.647,3.396
		c0,1.481,1.878,2.457,2.998,3.071c3.288,1.77,7.08,3.432,7.08,7.875c0,2.999-3.432,5.274-5.636,5.274
		C62.991,29.587,60.858,25.866,60.858,24.204z"/>
	<path d="M76.173,28.359c0,0.577,0.253,1.445,0.542,2.384c-0.831,0.939-2.349,1.085-3.144,0.071c-0.36-2.42-0.469-5.779-0.469-6.431
		c0-0.539,0.144-9.861,0.433-12.209c0.253-2.095,3.433-1.3,3.433,0.144c0,0.651-0.795,5.709-0.795,6.359V28.359z M75.089,4.083
		c1.41,0,2.132,2.275,2.132,2.637c0,0.759-1.265,1.373-1.878,1.373C72.669,8.092,72.776,4.083,75.089,4.083z"/>
	<path d="M79.206,27.274c-0.469-3.143-0.505-8.597-0.505-9.572c0-1.518-0.108-3.432-0.037-5.275c0.073-1.807-0.361-4.552,0.83-4.66
		c2.999-0.326,2.458,1.841,2.603,3.106c0.288,2.817-0.217,6.539,0,9.356c0.107,1.41,0.505,3.071,0.613,4.695
		c0,0,2.421,0.037,3.793,0.037c1.012,0,1.446-0.759,2.349-0.759c3.685,0,3.324,3,1.302,3.324
		C88.129,27.853,81.121,27.312,79.206,27.274z"/>
	<path d="M96.184,28.359c0,0.577,0.252,1.445,0.541,2.384c-0.831,0.939-2.349,1.085-3.143,0.071
		c-0.361-2.42-0.471-5.779-0.471-6.431c0-0.539,0.145-9.861,0.435-12.209c0.252-2.095,3.432-1.3,3.432,0.144
		c0,0.651-0.794,5.709-0.794,6.359V28.359z M95.099,4.083c1.409,0,2.132,2.275,2.132,2.637c0,0.759-1.265,1.373-1.878,1.373
		C92.68,8.092,92.787,4.083,95.099,4.083z"/>
</g>
</svg>
