<?xml version="1.0" encoding="utf-8"?>
<!-- Generator: Adobe Illustrator 15.0.2, SVG Export Plug-In . SVG Version: 6.00 Build 0)  -->
<!DOCTYPE svg PUBLIC "-//W3C//DTD SVG 1.1//EN" "http://www.w3.org/Graphics/SVG/1.1/DTD/svg11.dtd">
<svg version="1.1" id="Layer_1" xmlns="http://www.w3.org/2000/svg" xmlns:xlink="http://www.w3.org/1999/xlink" x="0px" y="0px"
	 width="147px" height="19px" viewBox="0 0 147 19" enable-background="new 0 0 147 19" xml:space="preserve">
<g>
	<path fill="#FFBB11" d="M0.5,0.694h1.455v17.303H0.5V0.694z"/>
	<path fill="#FFBB11" d="M6.297,0.694h1.451v2.474H6.297V0.694z M6.297,5.127h1.451v12.87H6.297V5.127z"/>
	<path fill="#FFBB11" d="M12.529,6.34h-1.77V5.127h1.77V3.604c0-1.773,0.36-3.104,2.811-3.104c0.435,0,0.655,0.027,0.917,0.073
		v1.213c-0.215-0.049-0.435-0.075-0.698-0.075c-1.066,0-1.576,0.413-1.576,1.893v1.523h2.274V6.34h-2.274v11.657h-1.454V6.34z"/>
	<path fill="#FFBB11" d="M26.369,13.734c-0.215,2.737-1.721,4.558-4.141,4.558c-2.722,0-4.319-1.897-4.319-6.74
		c0-4.462,1.597-6.716,4.438-6.716c2.855,0,4.141,1.966,4.141,6.257v0.533h-7.03v0.604c0,3.71,1.312,4.843,2.74,4.843
		c1.529,0,2.474-1.089,2.714-3.339H26.369z M24.942,10.413c-0.054-3.198-0.946-4.365-2.744-4.365c-1.79,0-2.691,1.167-2.74,4.365
		H24.942z"/>
	<path fill="#FFBB11" d="M35.209,0.694h1.451v2.474h-1.451V0.694z M35.209,5.127h1.451v12.87h-1.451V5.127z"/>
	<path fill="#FFBB11" d="M42.821,11.6C41,10.896,40.346,9.832,40.346,8.547c0-2.642,1.648-3.711,3.831-3.711
		c2.428,0,3.536,1.243,3.536,3.592v0.359h-1.448V8.428c0-1.678-0.777-2.38-2.111-2.38c-1.702,0-2.352,0.9-2.352,2.184
		c0,0.897,0.289,1.6,1.742,2.16l2.115,0.797c1.737,0.653,2.394,1.868,2.394,3.272c0,2.205-1.261,3.831-3.971,3.831
		c-2.643,0-3.952-1.09-3.952-4v-0.413h1.453v0.34c0,1.891,0.828,2.854,2.473,2.854c1.551,0,2.549-0.868,2.549-2.294
		c0-1.146-0.464-1.869-1.748-2.378L42.821,11.6z"/>
	<path fill="#FFBB11" d="M56.042,0.694h1.457V7.07h0.043c0.32-1.362,1.409-2.234,3.005-2.234c2.839,0,4.127,2.282,4.127,6.716
		c0,4.464-1.289,6.74-4.127,6.74c-1.522,0-2.76-0.951-3.149-2.425H57.35v2.13h-1.308V0.694z M60.311,17.073
		c1.455,0,2.811-0.747,2.811-5.521c0-4.75-1.355-5.504-2.811-5.504c-1.478,0-2.812,0.754-2.812,5.504
		C57.499,16.326,58.833,17.073,60.311,17.073z"/>
	<path fill="#FFBB11" d="M75.121,13.734c-0.219,2.737-1.723,4.558-4.144,4.558c-2.714,0-4.316-1.897-4.316-6.74
		c0-4.462,1.602-6.716,4.437-6.716c2.856,0,4.146,1.966,4.146,6.257v0.533h-7.03v0.604c0,3.71,1.311,4.843,2.739,4.843
		c1.521,0,2.471-1.089,2.712-3.339H75.121z M73.691,10.413c-0.05-3.198-0.944-4.365-2.738-4.365c-1.798,0-2.69,1.167-2.739,4.365
		H73.691z"/>
	<path fill="#FFBB11" d="M78.779,6.34h-1.768V5.127h1.768V1.565h1.46v3.562h2.276V6.34h-2.276v9.234
		c0,1.017,0.438,1.356,1.383,1.356c0.289,0,0.58-0.046,0.894-0.145v1.211c-0.168,0.099-0.53,0.148-1.016,0.148
		c-1.966,0-2.721-0.535-2.721-2.255V6.34z"/>
	<path fill="#FFBB11" d="M85.959,6.34h-1.767V5.127h1.767V1.565h1.456v3.562h2.275V6.34h-2.275v9.234
		c0,1.017,0.434,1.356,1.38,1.356c0.289,0,0.582-0.046,0.896-0.145v1.211c-0.166,0.099-0.53,0.148-1.018,0.148
		c-1.96,0-2.714-0.535-2.714-2.255V6.34z"/>
	<path fill="#FFBB11" d="M100.527,13.734c-0.218,2.737-1.723,4.558-4.143,4.558c-2.714,0-4.314-1.897-4.314-6.74
		c0-4.462,1.601-6.716,4.436-6.716c2.857,0,4.146,1.966,4.146,6.257v0.533h-7.03v0.604c0,3.71,1.309,4.843,2.738,4.843
		c1.529,0,2.474-1.089,2.714-3.339H100.527z M99.099,10.413c-0.046-3.198-0.944-4.365-2.739-4.365c-1.796,0-2.688,1.167-2.738,4.365
		H99.099z"/>
	<path fill="#FFBB11" d="M104.503,5.127h1.457V7.14h0.047c0.561-1.432,1.747-2.304,3.254-2.304c0.167,0,0.337,0.03,0.505,0.077v1.45
		c-0.241-0.047-0.48-0.074-0.7-0.074c-1.606,0-3.105,1.163-3.105,3.663v8.045h-1.457V5.127z"/>
	<path fill="#FFBB11" d="M118.942,11.6c-1.816-0.703-2.474-1.768-2.474-3.052c0-2.642,1.649-3.711,3.831-3.711
		c2.419,0,3.54,1.243,3.54,3.592v0.359h-1.454V8.428c0-1.678-0.777-2.38-2.11-2.38c-1.691,0-2.35,0.9-2.35,2.184
		c0,0.897,0.285,1.6,1.742,2.16l2.106,0.797c1.746,0.653,2.403,1.868,2.403,3.272c0,2.205-1.261,3.831-3.976,3.831
		c-2.645,0-3.951-1.09-3.951-4v-0.413h1.456v0.34c0,1.891,0.823,2.854,2.471,2.854c1.552,0,2.541-0.868,2.541-2.294
		c0-1.146-0.456-1.869-1.74-2.378L118.942,11.6z"/>
	<path fill="#FFBB11" d="M127.771,0.694h1.45v2.474h-1.45V0.694z M127.771,5.127h1.45v12.87h-1.45V5.127z"/>
	<path fill="#FFBB11" d="M133.562,0.694h1.454v17.303h-1.454V0.694z"/>
	<path fill="#FFBB11" d="M144.854,15.525h1.646v2.472h-1.646V15.525z"/>
	<path fill="#FFBB11" d="M139.358,0.842h1.451v2.471h-1.451V0.842z M139.358,5.276h1.451v12.87h-1.451V5.276z"/>
</g>
</svg>
