<?xml version="1.0" encoding="utf-8"?>
<!-- Generator: Adobe Illustrator 15.0.2, SVG Export Plug-In . SVG Version: 6.00 Build 0)  -->
<!DOCTYPE svg PUBLIC "-//W3C//DTD SVG 1.1//EN" "http://www.w3.org/Graphics/SVG/1.1/DTD/svg11.dtd">
<svg version="1.1" id="Layer_1" xmlns="http://www.w3.org/2000/svg" xmlns:xlink="http://www.w3.org/1999/xlink" x="0px" y="0px"
	 width="22px" height="22px" viewBox="0 0 22 22" enable-background="new 0 0 22 22" xml:space="preserve">
<g>
	<path fill="#FFFFFF" d="M9.614,15.194c0,0.362,0.021,0.543-0.003,0.608c-0.068,0.192-0.388,0.401-0.512,0.021
		c-0.02-0.065-0.003-0.267-0.003-0.611l-0.003-2.519H8.229l0.003,2.479c0.002,0.38-0.009,0.663,0.005,0.793
		c0.021,0.228,0.011,0.493,0.222,0.644c0.391,0.285,1.142-0.042,1.328-0.447l-0.003,0.517h0.699v-3.985H9.614V15.194z"/>
	<polygon fill="#FFFFFF" points="8.399,11.994 8.399,11.298 5.624,11.296 5.624,11.979 6.49,11.982 6.49,16.681 7.359,16.681 
		7.359,11.994 	"/>
	<path fill="#FFFFFF" d="M10.847,8.272c0.213,0,0.387-0.19,0.387-0.428V5.638c0-0.23-0.174-0.425-0.387-0.425
		c-0.212,0-0.385,0.194-0.385,0.425v2.207C10.462,8.082,10.635,8.272,10.847,8.272"/>
	<path fill="#FFFFFF" d="M12.615,15.709c0,0.173-0.171,0.313-0.38,0.313s-0.38-0.141-0.38-0.313V13.37
		c0-0.174,0.171-0.313,0.38-0.313s0.38,0.14,0.38,0.313V15.709z M11.867,12.848l0.003-1.547l-0.868,0.002l-0.003,5.344l0.714-0.01
		l0.064-0.333c0.911,0.841,1.483,0.264,1.483-0.744l-0.003-2.084C13.258,12.681,12.668,12.205,11.867,12.848"/>
	<path fill="#FFFFFF" d="M14.502,13.605c0-0.214,0.174-0.388,0.39-0.388h0.051c0.213,0,0.388,0.174,0.388,0.388l-0.009,0.481h-0.822
		L14.502,13.605z M15.327,15.287c0,0.024-0.001,0.055-0.001,0.089v0.364c0,0.195-0.161,0.355-0.356,0.355h-0.127
		c-0.195,0-0.354-0.16-0.354-0.355v-0.038v-0.403v-0.521h1.49v-0.564c0-0.413-0.011-0.825-0.045-1.062
		c-0.107-0.745-1.147-0.865-1.674-0.481c-0.164,0.118-0.29,0.277-0.363,0.491c-0.075,0.216-0.114,0.509-0.114,0.881v1.244
		c0,2.065,2.494,1.771,2.196-0.004L15.327,15.287z"/>
	<path fill="#FFFFFF" d="M17.247,16.199c0,1.067-0.921,1.938-2.044,1.938H6.798c-1.123,0-2.044-0.871-2.044-1.938v-4.45
		c0-1.067,0.921-1.94,2.044-1.94h8.405c1.123,0,2.044,0.873,2.044,1.94V16.199z M7.623,3.053l0.58,2.029L8.777,3.06h0.999
		L8.696,5.78v3.18H7.783L7.781,5.783l-1.147-2.73H7.623z M10.157,4.729c0.172-0.137,0.392-0.203,0.658-0.203
		c0.223,0,0.416,0.042,0.577,0.131c0.159,0.085,0.285,0.201,0.37,0.339c0.088,0.14,0.147,0.284,0.179,0.431
		c0.032,0.151,0.05,0.376,0.05,0.68v1.048c0,0.385-0.018,0.667-0.046,0.848c-0.029,0.18-0.093,0.347-0.189,0.502
		c-0.099,0.156-0.222,0.271-0.375,0.346c-0.152,0.076-0.326,0.11-0.524,0.11c-0.219,0-0.406-0.029-0.559-0.095
		c-0.155-0.063-0.273-0.159-0.358-0.286c-0.086-0.13-0.146-0.283-0.182-0.468C9.72,7.931,9.704,7.658,9.704,7.297V6.199
		c0-0.396,0.034-0.707,0.098-0.933C9.869,5.045,9.987,4.866,10.157,4.729 M12.538,4.687h0.796v3.225
		c0,0.175,0.144,0.318,0.316,0.318c0.175,0,0.317-0.144,0.317-0.318V4.687h0.763v4.145h-0.968l0.017-0.343
		c-0.068,0.138-0.147,0.242-0.245,0.311c-0.095,0.071-0.206,0.105-0.332,0.105c-0.143,0-0.262-0.031-0.355-0.1
		c-0.095-0.064-0.164-0.155-0.208-0.266c-0.046-0.109-0.073-0.224-0.083-0.347c-0.01-0.118-0.018-0.354-0.018-0.712V4.687z
		 M11.001,0C4.926,0,0,4.925,0,11c0,6.073,4.926,10.998,11.001,10.998S22,17.073,22,11C22,4.925,17.076,0,11.001,0"/>
</g>
</svg>
