<?xml version="1.0" encoding="utf-8"?>
<!-- Generator: Adobe Illustrator 15.0.2, SVG Export Plug-In . SVG Version: 6.00 Build 0)  -->
<!DOCTYPE svg PUBLIC "-//W3C//DTD SVG 1.1//EN" "http://www.w3.org/Graphics/SVG/1.1/DTD/svg11.dtd">
<svg version="1.1" id="Layer_1" xmlns="http://www.w3.org/2000/svg" xmlns:xlink="http://www.w3.org/1999/xlink" x="0px" y="0px"
	 width="22px" height="22px" viewBox="0 0 22 22" enable-background="new 0 0 22 22" xml:space="preserve">
<path fill="#FFFFFF" d="M10.999,0C4.925,0,0,4.924,0,11.001c0,4.501,2.711,8.374,6.584,10.075c-0.03-0.77-0.006-1.69,0.192-2.528
	c0.211-0.892,1.417-5.991,1.417-5.991s-0.353-0.703-0.353-1.741c0-1.63,0.946-2.849,2.123-2.849c1.001,0,1.483,0.752,1.483,1.652
	c0,1.007-0.643,2.511-0.971,3.904c-0.277,1.167,0.585,2.118,1.735,2.118c2.085,0,3.487-2.68,3.487-5.85
	c0-2.41-1.621-4.216-4.575-4.216c-3.338,0-5.417,2.49-5.417,5.269c0,0.958,0.284,1.636,0.726,2.159
	c0.203,0.239,0.232,0.336,0.158,0.611c-0.051,0.204-0.173,0.69-0.224,0.884c-0.073,0.277-0.3,0.378-0.551,0.275
	C4.276,14.147,3.56,12.463,3.56,10.57c0-3.123,2.636-6.869,7.861-6.869c4.201,0,6.964,3.038,6.964,6.298
	c0,4.316-2.396,7.542-5.936,7.542c-1.187,0-2.303-0.644-2.687-1.371c0,0-0.64,2.534-0.773,3.023
	c-0.234,0.847-0.689,1.696-1.108,2.357C8.874,21.841,9.917,22,10.999,22C17.077,22,22,17.075,22,11.001C22,4.924,17.077,0,10.999,0"
	/>
</svg>
