<?xml version="1.0" encoding="utf-8"?>
<!-- Generator: Adobe Illustrator 15.0.2, SVG Export Plug-In . SVG Version: 6.00 Build 0)  -->
<!DOCTYPE svg PUBLIC "-//W3C//DTD SVG 1.1//EN" "http://www.w3.org/Graphics/SVG/1.1/DTD/svg11.dtd">
<svg version="1.1" id="Layer_1" xmlns="http://www.w3.org/2000/svg" xmlns:xlink="http://www.w3.org/1999/xlink" x="0px" y="0px"
	 width="22px" height="22px" viewBox="0 0 22 22" enable-background="new 0 0 22 22" xml:space="preserve">
<path fill="#FFFFFF" d="M14.191,6.523h-1.544c-0.306,0-0.614,0.317-0.614,0.554v1.588h2.154c-0.086,1.217-0.265,2.33-0.265,2.33
	h-1.899v6.899H9.19v-6.899H7.809V8.674H9.19V6.777c0-0.349-0.072-2.673,2.901-2.673h2.1V6.523z M22,11c0-6.075-4.925-11-11-11
	C4.926,0,0,4.925,0,11c0,6.074,4.926,11,11,11C17.075,22,22,17.074,22,11"/>
</svg>
