<?xml version="1.0" encoding="utf-8"?>
<!-- Generator: Adobe Illustrator 15.0.2, SVG Export Plug-In . SVG Version: 6.00 Build 0)  -->
<!DOCTYPE svg PUBLIC "-//W3C//DTD SVG 1.1//EN" "http://www.w3.org/Graphics/SVG/1.1/DTD/svg11.dtd">
<svg version="1.1" id="Layer_1" xmlns="http://www.w3.org/2000/svg" xmlns:xlink="http://www.w3.org/1999/xlink" x="0px" y="0px"
	 width="22px" height="22px" viewBox="0 0 22 22" enable-background="new 0 0 22 22" xml:space="preserve">
<g>
	<path fill="#FFFFFF" d="M13.847,11.479c0,1.541-1.255,2.799-2.799,2.799c-1.542,0-2.798-1.258-2.798-2.799
		c0-1.545,1.255-2.802,2.798-2.802C12.592,8.677,13.847,9.934,13.847,11.479"/>
	<path fill="#FFFFFF" d="M11,22.002c-6.065,0-11-4.935-11-11c0-0.477,0.035-0.946,0.092-1.406H7.04
		c-0.271,0.571-0.422,1.208-0.422,1.881c0,2.443,1.986,4.431,4.43,4.431c2.443,0,4.429-1.987,4.429-4.431
		c0-0.673-0.152-1.31-0.42-1.881h6.85c0.061,0.46,0.094,0.93,0.094,1.406C22,17.067,17.064,22.002,11,22.002"/>
	<path fill="#FFFFFF" d="M17.2,5.71c0,0.284-0.232,0.518-0.519,0.518h-1.6c-0.285,0-0.518-0.233-0.518-0.518V4.109
		c0-0.286,0.232-0.518,0.518-0.518h1.6c0.286,0,0.519,0.231,0.519,0.518V5.71z M11,0C6.022,0,1.81,3.326,0.458,7.869h8.028
		c0.722-0.517,1.607-0.82,2.562-0.82c0.955,0,1.839,0.304,2.564,0.82h7.932C20.19,3.326,15.977,0,11,0"/>
</g>
</svg>
