<?xml version="1.0" encoding="utf-8"?>
<!-- Generator: Adobe Illustrator 15.0.2, SVG Export Plug-In . SVG Version: 6.00 Build 0)  -->
<!DOCTYPE svg PUBLIC "-//W3C//DTD SVG 1.1//EN" "http://www.w3.org/Graphics/SVG/1.1/DTD/svg11.dtd">
<svg version="1.1" id="Layer_1" xmlns="http://www.w3.org/2000/svg" xmlns:xlink="http://www.w3.org/1999/xlink" x="0px" y="0px"
	 width="22px" height="22px" viewBox="0 0 22 22" enable-background="new 0 0 22 22" xml:space="preserve">
<path fill="#FFFFFF" d="M16.554,10.469c0.391,0.165,1.126,0.252,1.634,0.166c-0.323,0.345-0.839,0.657-1.719,0.651
	c-1.175,4.761-9.057,6.783-12.681,1.837c1.387,1.325,3.806,1.441,5.34-0.144c-0.898,0.133-1.556-0.752-0.449-1.226
	c-0.995,0.107-1.545-0.423-1.772-0.872c0.232-0.242,0.489-0.356,0.987-0.39c-1.088-0.256-1.489-0.788-1.612-1.435
	c0.3-0.074,0.68-0.133,0.887-0.108C6.215,8.452,5.882,7.702,5.936,7.138C7.64,7.772,8.722,8.279,9.629,8.766
	c0.323,0.173,0.686,0.484,1.091,0.878c0.517-1.369,1.158-2.783,2.255-3.483c-0.021,0.159-0.104,0.306-0.216,0.429
	c0.311-0.281,0.715-0.476,1.124-0.536c-0.044,0.309-0.49,0.484-0.757,0.584c0.201-0.064,1.279-0.544,1.396-0.271
	c0.141,0.314-0.743,0.459-0.895,0.511c-0.112,0.038-0.225,0.078-0.332,0.126c1.364-0.138,2.67,0.989,3.051,2.392
	c0.026,0.1,0.054,0.211,0.078,0.329c0.501,0.186,1.408-0.007,1.698-0.187C17.911,10.034,17.362,10.402,16.554,10.469 M22,11.001
	C22,4.927,17.075,0,10.999,0C4.925,0,0,4.927,0,11.001c0,6.077,4.925,11.001,10.999,11.001C17.075,22.002,22,17.078,22,11.001"/>
</svg>
